<svg version="1.1" id="Layer_1" xmlns="http://www.w3.org/2000/svg" xmlns:xlink="http://www.w3.org/1999/xlink" x="0px" y="0px"
	 width="100%" viewBox="0 0 512 512" enable-background="new 0 0 512 512" xml:space="preserve">
<path fill="#30D8A4" opacity="1.000000" stroke="none" 
	d="
M287.000000,513.000000 
	C191.356552,513.000000 96.213104,513.000000 1.034826,513.000000 
	C1.034826,342.398193 1.034826,171.796371 1.034826,1.097280 
	C171.560135,1.097280 342.120331,1.097280 512.840271,1.097280 
	C512.840271,171.666550 512.840271,342.333252 512.840271,513.000000 
	C437.796356,513.000000 362.648163,513.000000 287.000000,513.000000 
M130.729645,282.510193 
	C130.729645,278.438171 130.729645,274.366150 130.729645,270.413971 
	C136.353058,270.413971 141.084869,270.413971 146.249237,270.413971 
	C146.249237,281.400665 146.249237,291.995361 146.249237,302.678955 
	C152.599899,302.678955 158.492889,302.678955 164.438782,302.678955 
	C164.438782,276.476715 164.438782,250.613983 164.438782,224.699921 
	C158.127579,224.699921 152.241364,224.699921 145.870956,224.699921 
	C145.870956,235.552826 145.870956,245.984497 145.870956,256.388489 
	C140.643860,256.388489 135.924515,256.388489 130.730057,256.388489 
	C130.730057,254.180145 130.730347,252.371857 130.729996,250.563583 
	C130.728592,243.066574 130.852661,235.565430 130.604996,228.076553 
	C130.562424,226.789139 129.022568,224.550690 128.028976,224.466476 
	C123.440468,224.077545 118.800575,224.294800 113.818115,224.294800 
	C113.818115,250.722717 113.818115,276.615112 113.818115,302.698059 
	C119.424461,302.698059 124.813232,302.698059 130.729553,302.698059 
	C130.729553,296.096191 130.729553,289.801880 130.729645,282.510193 
M202.206543,272.888458 
	C203.491760,275.981323 205.462753,278.976440 205.920334,282.187256 
	C206.891647,289.002686 207.074936,295.930450 207.574722,302.722839 
	C214.160950,302.722839 219.742142,302.722839 224.962067,302.722839 
	C224.398926,295.504028 223.670898,288.554108 223.362366,281.585602 
	C223.013168,273.698669 221.633926,266.749847 210.915298,265.752960 
	C223.282837,260.143341 226.738678,253.563217 224.728180,241.281204 
	C223.082687,231.228821 216.909683,225.993149 205.112000,224.982391 
	C199.813370,224.528427 194.479797,224.434738 189.158966,224.302567 
	C184.916428,224.197174 180.669174,224.281296 176.439636,224.281296 
	C176.439636,250.963379 176.439636,276.709839 176.439636,302.726501 
	C182.111893,302.726501 187.496567,302.726501 193.523621,302.726501 
	C193.523621,292.396179 193.523621,282.334259 193.523621,271.712799 
	C196.628464,271.990997 199.062622,272.209076 202.206543,272.888458 
M392.185455,211.176224 
	C386.610168,211.176224 381.034882,211.176224 375.157318,211.176224 
	C375.157318,217.144531 375.165802,222.459015 375.155701,227.773483 
	C375.130035,241.271347 375.254639,254.772202 374.999084,268.265808 
	C374.869965,275.083160 370.061951,278.366455 364.344971,275.998505 
	C360.156433,274.263611 360.013031,270.375671 359.993073,266.713379 
	C359.902222,250.049149 359.942871,233.384186 359.936432,216.719482 
	C359.935760,214.949142 359.936340,213.178787 359.936340,211.247284 
	C353.691956,211.247284 348.107330,211.247284 341.994293,211.247284 
	C341.994293,213.110397 341.994293,214.728134 341.994293,216.345871 
	C341.994324,231.010864 341.916229,245.676529 342.041412,260.340454 
	C342.079681,264.819763 342.338867,269.351501 343.086365,273.759308 
	C344.754761,283.597534 349.970245,288.766815 359.895966,290.102509 
	C364.619232,290.738129 369.556549,290.851135 374.274384,290.245911 
	C385.512634,288.804291 391.365906,283.990417 391.976868,272.743805 
	C393.077332,252.486465 392.654755,232.146393 392.185455,211.176224 
M328.187439,238.431625 
	C324.493591,234.755264 321.419220,229.792938 316.983673,227.656372 
	C305.993744,222.362595 293.985962,224.460297 282.420593,224.500275 
	C282.420593,251.038773 282.420593,276.931366 282.420593,302.917603 
	C289.675018,302.917603 296.519592,303.218842 303.328796,302.856079 
	C318.398132,302.053192 327.614807,294.954041 330.471527,280.972015 
	C333.330994,266.976593 333.567566,252.850174 328.187439,238.431625 
M403.149902,255.499969 
	C403.149902,266.748840 403.149902,277.997742 403.149902,289.465759 
	C409.239075,289.465759 414.502167,289.465759 420.450439,289.465759 
	C420.450439,280.997681 420.450439,272.764709 420.450439,264.482513 
	C425.378174,263.911041 429.690674,263.681824 433.891357,262.872406 
	C445.930298,260.552704 452.550354,252.327927 452.992981,239.532425 
	C453.502319,224.807831 447.728027,214.900543 435.292938,212.638168 
	C424.969971,210.760010 414.248993,211.069183 403.149933,210.374695 
	C403.149933,225.915222 403.149933,240.207596 403.149902,255.499969 
M237.846069,224.284363 
	C234.086716,223.752853 234.020523,226.092911 234.027496,228.872131 
	C234.086472,252.341278 234.057068,275.810638 234.077118,299.279907 
	C234.078079,300.391235 234.295074,301.502411 234.427765,302.769196 
	C247.125641,302.769196 259.534454,302.769196 272.077148,302.769196 
	C272.077148,298.337280 272.077148,294.152557 272.077148,289.667786 
	C269.969635,289.667786 268.318604,289.671387 266.667572,289.667206 
	C250.532730,289.626465 250.599594,289.628937 251.279572,273.428680 
	C251.403030,270.487518 252.267181,269.174744 255.332458,269.299072 
	C259.280487,269.459259 263.239899,269.338043 267.398376,269.338043 
	C267.398376,264.596893 267.398376,260.533142 267.398376,255.929794 
	C262.004883,255.929794 256.920563,255.929794 251.743607,255.929794 
	C251.743607,249.670685 251.743607,243.960098 251.743607,237.628815 
	C258.688904,237.628815 265.241516,237.628815 271.981262,237.628815 
	C271.981262,232.917419 271.981262,228.837463 271.981262,224.281555 
	C260.684418,224.281555 249.732010,224.281555 237.846069,224.284363 
M74.662521,281.499359 
	C74.662521,288.578979 74.662521,295.658600 74.662521,302.569061 
	C80.825424,302.569061 86.207230,302.569061 92.144173,302.569061 
	C92.144173,280.756622 92.144173,259.383331 92.144173,237.469421 
	C96.973602,237.469421 101.224777,237.469421 105.439537,237.469421 
	C105.439537,232.855637 105.439537,228.804825 105.439537,224.633835 
	C90.470398,224.633835 75.916405,224.633835 61.310768,224.633835 
	C61.310768,229.069580 61.310768,233.143280 61.310768,237.908737 
	C65.834190,237.908737 70.056488,237.908737 74.662819,237.908737 
	C74.662819,252.570160 74.662819,266.534790 74.662521,281.499359 
z"/>
<path fill="#232524" opacity="1.000000" stroke="none" 
	d="
M130.729599,283.008881 
	C130.729553,289.801880 130.729553,296.096191 130.729553,302.698059 
	C124.813232,302.698059 119.424461,302.698059 113.818115,302.698059 
	C113.818115,276.615112 113.818115,250.722717 113.818115,224.294800 
	C118.800575,224.294800 123.440468,224.077545 128.028976,224.466476 
	C129.022568,224.550690 130.562424,226.789139 130.604996,228.076553 
	C130.852661,235.565430 130.728592,243.066574 130.729996,250.563583 
	C130.730347,252.371857 130.730057,254.180145 130.730057,256.388489 
	C135.924515,256.388489 140.643860,256.388489 145.870956,256.388489 
	C145.870956,245.984497 145.870956,235.552826 145.870956,224.699921 
	C152.241364,224.699921 158.127579,224.699921 164.438782,224.699921 
	C164.438782,250.613983 164.438782,276.476715 164.438782,302.678955 
	C158.492889,302.678955 152.599899,302.678955 146.249237,302.678955 
	C146.249237,291.995361 146.249237,281.400665 146.249237,270.413971 
	C141.084869,270.413971 136.353058,270.413971 130.729645,270.413971 
	C130.729645,274.366150 130.729645,278.438171 130.729599,283.008881 
z"/>
<path fill="#232323" opacity="1.000000" stroke="none" 
	d="
M201.851654,272.657837 
	C199.062622,272.209076 196.628464,271.990997 193.523621,271.712799 
	C193.523621,282.334259 193.523621,292.396179 193.523621,302.726501 
	C187.496567,302.726501 182.111893,302.726501 176.439636,302.726501 
	C176.439636,276.709839 176.439636,250.963379 176.439636,224.281296 
	C180.669174,224.281296 184.916428,224.197174 189.158966,224.302567 
	C194.479797,224.434738 199.813370,224.528427 205.112000,224.982391 
	C216.909683,225.993149 223.082687,231.228821 224.728180,241.281204 
	C226.738678,253.563217 223.282837,260.143341 210.915298,265.752960 
	C221.633926,266.749847 223.013168,273.698669 223.362366,281.585602 
	C223.670898,288.554108 224.398926,295.504028 224.962067,302.722839 
	C219.742142,302.722839 214.160950,302.722839 207.574722,302.722839 
	C207.074936,295.930450 206.891647,289.002686 205.920334,282.187256 
	C205.462753,278.976440 203.491760,275.981323 201.851654,272.657837 
M201.868851,257.979584 
	C207.425781,255.671814 209.590240,250.156097 207.505661,243.615311 
	C205.913971,238.621140 201.220825,236.814102 193.282074,238.484756 
	C193.282074,242.458725 193.281403,246.563522 193.282211,250.668335 
	C193.283783,258.606049 193.284134,258.606049 201.868851,257.979584 
z"/>
<path fill="#232122" opacity="1.000000" stroke="none" 
	d="
M392.526917,211.508545 
	C392.654755,232.146393 393.077332,252.486465 391.976868,272.743805 
	C391.365906,283.990417 385.512634,288.804291 374.274384,290.245911 
	C369.556549,290.851135 364.619232,290.738129 359.895966,290.102509 
	C349.970245,288.766815 344.754761,283.597534 343.086365,273.759308 
	C342.338867,269.351501 342.079681,264.819763 342.041412,260.340454 
	C341.916229,245.676529 341.994324,231.010864 341.994293,216.345871 
	C341.994293,214.728134 341.994293,213.110397 341.994293,211.247284 
	C348.107330,211.247284 353.691956,211.247284 359.936340,211.247284 
	C359.936340,213.178787 359.935760,214.949142 359.936432,216.719482 
	C359.942871,233.384186 359.902222,250.049149 359.993073,266.713379 
	C360.013031,270.375671 360.156433,274.263611 364.344971,275.998505 
	C370.061951,278.366455 374.869965,275.083160 374.999084,268.265808 
	C375.254639,254.772202 375.130035,241.271347 375.155701,227.773483 
	C375.165802,222.459015 375.157318,217.144531 375.157318,211.176224 
	C381.034882,211.176224 386.610168,211.176224 392.526917,211.508545 
z"/>
<path fill="#232122" opacity="1.000000" stroke="none" 
	d="
M328.371063,238.762390 
	C333.567566,252.850174 333.330994,266.976593 330.471527,280.972015 
	C327.614807,294.954041 318.398132,302.053192 303.328796,302.856079 
	C296.519592,303.218842 289.675018,302.917603 282.420593,302.917603 
	C282.420593,276.931366 282.420593,251.038773 282.420593,224.500275 
	C293.985962,224.460297 305.993744,222.362595 316.983673,227.656372 
	C321.419220,229.792938 324.493591,234.755264 328.371063,238.762390 
M314.202240,247.643799 
	C311.613861,239.273911 307.797089,236.914963 299.357910,238.599136 
	C299.357910,255.295853 299.357910,272.023102 299.357910,288.698822 
	C307.503418,290.110382 312.015320,287.661774 313.843170,280.153503 
	C316.391479,269.685852 316.169708,259.057159 314.202240,247.643799 
z"/>
<path fill="#232323" opacity="1.000000" stroke="none" 
	d="
M403.149902,254.999969 
	C403.149933,240.207596 403.149933,225.915222 403.149933,210.374695 
	C414.248993,211.069183 424.969971,210.760010 435.292938,212.638168 
	C447.728027,214.900543 453.502319,224.807831 452.992981,239.532425 
	C452.550354,252.327927 445.930298,260.552704 433.891357,262.872406 
	C429.690674,263.681824 425.378174,263.911041 420.450439,264.482513 
	C420.450439,272.764709 420.450439,280.997681 420.450439,289.465759 
	C414.502167,289.465759 409.239075,289.465759 403.149902,289.465759 
	C403.149902,277.997742 403.149902,266.748840 403.149902,254.999969 
M436.162964,236.607880 
	C435.442749,226.780914 430.653656,223.001862 420.819183,224.765305 
	C420.705109,225.985123 420.484589,227.281540 420.479309,228.578812 
	C420.452942,235.063263 420.354279,241.553558 420.636871,248.026276 
	C420.677582,248.959106 422.614502,250.528641 423.730530,250.580292 
	C432.038910,250.964676 435.734039,246.955536 436.162964,236.607880 
z"/>
<path fill="#232323" opacity="1.000000" stroke="none" 
	d="
M238.312836,224.282959 
	C249.732010,224.281555 260.684418,224.281555 271.981262,224.281555 
	C271.981262,228.837463 271.981262,232.917419 271.981262,237.628815 
	C265.241516,237.628815 258.688904,237.628815 251.743607,237.628815 
	C251.743607,243.960098 251.743607,249.670685 251.743607,255.929794 
	C256.920563,255.929794 262.004883,255.929794 267.398376,255.929794 
	C267.398376,260.533142 267.398376,264.596893 267.398376,269.338043 
	C263.239899,269.338043 259.280487,269.459259 255.332458,269.299072 
	C252.267181,269.174744 251.403030,270.487518 251.279572,273.428680 
	C250.599594,289.628937 250.532730,289.626465 266.667572,289.667206 
	C268.318604,289.671387 269.969635,289.667786 272.077148,289.667786 
	C272.077148,294.152557 272.077148,298.337280 272.077148,302.769196 
	C259.534454,302.769196 247.125641,302.769196 234.427765,302.769196 
	C234.295074,301.502411 234.078079,300.391235 234.077118,299.279907 
	C234.057068,275.810638 234.086472,252.341278 234.027496,228.872131 
	C234.020523,226.092911 234.086716,223.752853 238.312836,224.282959 
z"/>
<path fill="#232424" opacity="1.000000" stroke="none" 
	d="
M74.662674,280.999390 
	C74.662819,266.534790 74.662819,252.570160 74.662819,237.908737 
	C70.056488,237.908737 65.834190,237.908737 61.310768,237.908737 
	C61.310768,233.143280 61.310768,229.069580 61.310768,224.633835 
	C75.916405,224.633835 90.470398,224.633835 105.439537,224.633835 
	C105.439537,228.804825 105.439537,232.855637 105.439537,237.469421 
	C101.224777,237.469421 96.973602,237.469421 92.144173,237.469421 
	C92.144173,259.383331 92.144173,280.756622 92.144173,302.569061 
	C86.207230,302.569061 80.825424,302.569061 74.662521,302.569061 
	C74.662521,295.658600 74.662521,288.578979 74.662674,280.999390 
z"/>
<path fill="#2FD09E" opacity="1.000000" stroke="none" 
	d="
M201.439957,258.026398 
	C193.284134,258.606049 193.283783,258.606049 193.282211,250.668335 
	C193.281403,246.563522 193.282074,242.458725 193.282074,238.484756 
	C201.220825,236.814102 205.913971,238.621140 207.505661,243.615311 
	C209.590240,250.156097 207.425781,255.671814 201.439957,258.026398 
z"/>
<path fill="#30D5A2" opacity="1.000000" stroke="none" 
	d="
M314.299957,248.049911 
	C316.169708,259.057159 316.391479,269.685852 313.843170,280.153503 
	C312.015320,287.661774 307.503418,290.110382 299.357910,288.698822 
	C299.357910,272.023102 299.357910,255.295853 299.357910,238.599136 
	C307.797089,236.914963 311.613861,239.273911 314.299957,248.049911 
z"/>
<path fill="#2FCF9D" opacity="1.000000" stroke="none" 
	d="
M436.168823,237.053009 
	C435.734039,246.955536 432.038910,250.964676 423.730530,250.580292 
	C422.614502,250.528641 420.677582,248.959106 420.636871,248.026276 
	C420.354279,241.553558 420.452942,235.063263 420.479309,228.578812 
	C420.484589,227.281540 420.705109,225.985123 420.819183,224.765305 
	C430.653656,223.001862 435.442749,226.780914 436.168823,237.053009 
z"/>
</svg>