<svg version="1.1" id="Layer_1" xmlns="http://www.w3.org/2000/svg" xmlns:xlink="http://www.w3.org/1999/xlink" x="0px" y="0px"
	 width="100%" viewBox="0 0 2000 1125" enable-background="new 0 0 2000 1125" xml:space="preserve">
<path fill="#FFFFFF" opacity="1.000000" stroke="none" 
	d="
M1465.000000,1126.000000 
	C976.666809,1126.000000 488.833618,1126.000000 1.000327,1126.000000 
	C1.000218,751.000244 1.000218,376.000519 1.000109,1.000579 
	C667.666199,1.000386 1334.332397,1.000386 2000.999023,1.000193 
	C2000.999268,375.999420 2000.999268,750.998840 2000.999634,1125.999146 
	C1822.500000,1126.000000 1644.000000,1126.000000 1465.000000,1126.000000 
M1187.498169,1036.999268 
	C1192.179199,1035.027954 1196.920532,1033.187012 1201.530029,1031.060547 
	C1214.991821,1024.850586 1228.827148,1019.290222 1241.738892,1012.082703 
	C1265.915283,998.587036 1289.296021,983.773560 1311.308228,966.837036 
	C1348.216309,938.439392 1380.668091,905.659546 1408.571167,868.451111 
	C1426.016968,845.187134 1441.774170,820.739746 1454.542847,794.571289 
	C1462.368530,778.533081 1469.712280,762.189331 1476.065430,745.522705 
	C1482.302490,729.160522 1487.626831,712.383057 1492.217529,695.479858 
	C1496.679688,679.049438 1499.907837,662.269592 1503.269287,645.560974 
	C1504.871216,637.598511 1505.585815,629.452942 1506.594116,621.376831 
	C1508.025024,609.916870 1510.306030,598.461670 1510.514404,586.973450 
	C1510.853271,568.276611 1512.523193,549.513611 1508.985840,530.834106 
	C1507.264648,521.745728 1507.399658,512.319885 1505.985718,503.156158 
	C1503.233398,485.318665 1500.840332,467.356049 1496.711182,449.818970 
	C1491.937500,429.544922 1486.369019,409.352844 1479.488159,389.705627 
	C1470.015503,362.657593 1457.766357,336.750854 1443.469116,311.818451 
	C1422.689209,275.581085 1397.973389,242.302673 1369.219971,212.067062 
	C1344.962402,186.558960 1318.149170,163.967575 1289.096436,144.071228 
	C1269.017578,130.320480 1248.173584,117.841309 1226.237793,107.277832 
	C1215.718506,102.212105 1205.084717,97.340012 1194.282104,92.919754 
	C1184.251465,88.815369 1173.990356,85.241585 1163.714111,81.779808 
	C1154.040894,78.521111 1144.251587,75.589127 1134.444946,72.749733 
	C1127.470825,70.730461 1120.418579,68.947533 1113.337524,67.339142 
	C1103.673584,65.144081 1094.000000,62.913589 1084.234497,61.267685 
	C1076.400757,59.947357 1068.430298,59.412216 1060.509644,58.638939 
	C1045.151123,57.139507 1029.805420,54.868252 1014.416321,54.496227 
	C998.164551,54.103355 981.857422,55.357937 965.594971,56.261723 
	C954.166199,56.896877 942.762573,58.054848 931.366089,59.168377 
	C926.095459,59.683369 920.804260,60.351170 915.634705,61.469074 
	C902.082947,64.399673 888.540771,67.407875 875.094177,70.781532 
	C863.566895,73.673660 852.003540,76.606079 840.771057,80.442642 
	C827.124146,85.103912 813.650024,90.364502 800.391663,96.043930 
	C786.772095,101.878120 773.090454,107.789551 760.169006,114.983627 
	C735.975708,128.453354 712.608704,143.289536 690.601929,160.229080 
	C653.701782,188.632660 621.257996,221.421509 593.363342,258.638245 
	C576.023499,281.772888 560.695190,306.242340 547.511169,332.019440 
	C535.574768,355.357361 525.033447,379.366028 517.464905,404.406555 
	C510.726135,426.701538 505.157776,449.446747 500.719879,472.312927 
	C496.471069,494.204773 493.145660,516.427612 491.651459,538.655396 
	C490.401978,557.242615 489.461517,576.078552 492.908600,594.780579 
	C494.795349,605.017029 494.823486,615.582336 496.092255,625.950134 
	C497.604431,638.306885 498.950684,650.734009 501.461670,662.905212 
	C504.334167,676.828796 507.767609,690.710144 512.111694,704.239197 
	C518.424622,723.900085 525.128601,743.486511 532.809692,762.646179 
	C548.837891,802.626831 571.147339,839.069702 597.220215,873.275818 
	C625.656738,910.582764 658.863892,943.060303 696.371948,971.141174 
	C719.466064,988.430786 743.908264,1003.644531 769.603699,1016.767517 
	C781.052002,1022.614258 792.638733,1028.243164 804.437317,1033.334351 
	C814.236450,1037.562744 824.397827,1040.972290 834.474365,1044.530518 
	C841.773926,1047.108154 849.120361,1049.618042 856.583984,1051.650879 
	C866.931580,1054.469116 877.390381,1056.890259 887.835815,1059.335205 
	C897.486389,1061.594116 907.093201,1064.295654 916.878479,1065.662598 
	C931.476929,1067.701660 946.215210,1068.738892 960.893677,1070.205322 
	C963.873718,1070.502930 966.846863,1071.000488 969.832581,1071.088745 
	C986.605774,1071.584839 1003.403870,1072.710083 1020.150330,1072.201294 
	C1035.377808,1071.738647 1050.583496,1069.738037 1065.736328,1067.901245 
	C1077.704834,1066.450684 1089.623291,1064.459351 1101.480225,1062.257812 
	C1110.558716,1060.572021 1119.570801,1058.422852 1128.496460,1056.044800 
	C1139.662720,1053.069946 1150.770874,1049.841797 1161.789062,1046.359253 
	C1170.241089,1043.687744 1178.514893,1040.452881 1187.498169,1036.999268 
z"/>
<path fill="#4AE1BB" opacity="1.000000" stroke="none" 
	d="
M1187.183105,1037.233887 
	C1178.514893,1040.452881 1170.241089,1043.687744 1161.789062,1046.359253 
	C1150.770874,1049.841797 1139.662720,1053.069946 1128.496460,1056.044800 
	C1119.570801,1058.422852 1110.558716,1060.572021 1101.480225,1062.257812 
	C1089.623291,1064.459351 1077.704834,1066.450684 1065.736328,1067.901245 
	C1050.583496,1069.738037 1035.377808,1071.738647 1020.150330,1072.201294 
	C1003.403870,1072.710083 986.605774,1071.584839 969.832581,1071.088745 
	C966.846863,1071.000488 963.873718,1070.502930 960.893677,1070.205322 
	C946.215210,1068.738892 931.476929,1067.701660 916.878479,1065.662598 
	C907.093201,1064.295654 897.486389,1061.594116 887.835815,1059.335205 
	C877.390381,1056.890259 866.931580,1054.469116 856.583984,1051.650879 
	C849.120361,1049.618042 841.773926,1047.108154 834.474365,1044.530518 
	C824.397827,1040.972290 814.236450,1037.562744 804.437317,1033.334351 
	C792.638733,1028.243164 781.052002,1022.614258 769.603699,1016.767517 
	C743.908264,1003.644531 719.466064,988.430786 696.371948,971.141174 
	C658.863892,943.060303 625.656738,910.582764 597.220215,873.275818 
	C571.147339,839.069702 548.837891,802.626831 532.809692,762.646179 
	C525.128601,743.486511 518.424622,723.900085 512.111694,704.239197 
	C507.767609,690.710144 504.334167,676.828796 501.461670,662.905212 
	C498.950684,650.734009 497.604431,638.306885 496.092255,625.950134 
	C494.823486,615.582336 494.795349,605.017029 492.908600,594.780579 
	C489.461517,576.078552 490.401978,557.242615 491.651459,538.655396 
	C493.145660,516.427612 496.471069,494.204773 500.719879,472.312927 
	C505.157776,449.446747 510.726135,426.701538 517.464905,404.406555 
	C525.033447,379.366028 535.574768,355.357361 547.511169,332.019440 
	C560.695190,306.242340 576.023499,281.772888 593.363342,258.638245 
	C621.257996,221.421509 653.701782,188.632660 690.601929,160.229080 
	C712.608704,143.289536 735.975708,128.453354 760.169006,114.983627 
	C773.090454,107.789551 786.772095,101.878120 800.391663,96.043930 
	C813.650024,90.364502 827.124146,85.103912 840.771057,80.442642 
	C852.003540,76.606079 863.566895,73.673660 875.094177,70.781532 
	C888.540771,67.407875 902.082947,64.399673 915.634705,61.469074 
	C920.804260,60.351170 926.095459,59.683369 931.366089,59.168377 
	C942.762573,58.054848 954.166199,56.896877 965.594971,56.261723 
	C981.857422,55.357937 998.164551,54.103355 1014.416321,54.496227 
	C1029.805420,54.868252 1045.151123,57.139507 1060.509644,58.638939 
	C1068.430298,59.412216 1076.400757,59.947357 1084.234497,61.267685 
	C1094.000000,62.913589 1103.673584,65.144081 1113.337524,67.339142 
	C1120.418579,68.947533 1127.470825,70.730461 1134.444946,72.749733 
	C1144.251587,75.589127 1154.040894,78.521111 1163.714111,81.779808 
	C1173.990356,85.241585 1184.251465,88.815369 1194.282104,92.919754 
	C1205.084717,97.340012 1215.718506,102.212105 1226.237793,107.277832 
	C1248.173584,117.841309 1269.017578,130.320480 1289.096436,144.071228 
	C1318.149170,163.967575 1344.962402,186.558960 1369.219971,212.067062 
	C1397.973389,242.302673 1422.689209,275.581085 1443.469116,311.818451 
	C1457.766357,336.750854 1470.015503,362.657593 1479.488159,389.705627 
	C1486.369019,409.352844 1491.937500,429.544922 1496.711182,449.818970 
	C1500.840332,467.356049 1503.233398,485.318665 1505.985718,503.156158 
	C1507.399658,512.319885 1507.264648,521.745728 1508.985840,530.834106 
	C1512.523193,549.513611 1510.853271,568.276611 1510.514404,586.973450 
	C1510.306030,598.461670 1508.025024,609.916870 1506.594116,621.376831 
	C1505.585815,629.452942 1504.871216,637.598511 1503.269287,645.560974 
	C1499.907837,662.269592 1496.679688,679.049438 1492.217529,695.479858 
	C1487.626831,712.383057 1482.302490,729.160522 1476.065430,745.522705 
	C1469.712280,762.189331 1462.368530,778.533081 1454.542847,794.571289 
	C1441.774170,820.739746 1426.016968,845.187134 1408.571167,868.451111 
	C1380.668091,905.659546 1348.216309,938.439392 1311.308228,966.837036 
	C1289.296021,983.773560 1265.915283,998.587036 1241.738892,1012.082703 
	C1228.827148,1019.290222 1214.991821,1024.850586 1201.530029,1031.060547 
	C1196.920532,1033.187012 1192.179199,1035.027954 1187.183105,1037.233887 
M785.385315,648.110229 
	C785.923523,646.749512 786.922791,645.391357 786.930420,644.027710 
	C787.033691,625.368896 787.000000,606.709412 787.000000,588.050049 
	C787.000000,561.727051 787.042725,535.403809 786.899231,509.081635 
	C786.890137,507.411407 785.432617,505.749084 784.145752,503.574158 
	C782.486572,502.760559 780.860840,501.338867 779.162048,501.245422 
	C773.681274,500.944000 768.173584,501.125580 762.676270,501.132233 
	C756.111145,501.140228 755.279724,501.960907 755.273743,508.643768 
	C755.259827,524.136169 755.124756,539.630920 755.366394,555.119629 
	C755.442566,560.003052 753.676697,561.549500 748.946106,561.401672 
	C740.125732,561.126160 731.285522,561.145691 722.463623,561.396667 
	C717.944214,561.525146 715.963440,559.732178 716.006531,555.341064 
	C716.163147,539.362244 716.326599,523.383484 716.428223,507.404266 
	C716.451782,503.696686 715.423950,500.909424 710.771545,501.085052 
	C705.448425,501.286011 700.111877,501.122589 694.781128,501.133759 
	C687.624207,501.148773 687.205688,501.580292 687.205750,508.850006 
	C687.206177,548.997070 687.207581,589.144104 687.208069,629.291138 
	C687.208130,634.788452 687.265869,640.286682 687.181335,645.782776 
	C687.123352,649.552856 688.721680,651.219666 692.596619,651.106934 
	C698.588623,650.932556 704.590332,651.124268 710.586121,651.036255 
	C714.881714,650.973267 716.500305,648.741272 716.436340,644.325378 
	C716.204651,628.346130 716.121155,612.364624 716.029846,596.383667 
	C716.007812,592.534363 717.805542,590.700134 721.904541,590.787903 
	C730.562988,590.973450 739.228210,590.840332 747.890625,590.845886 
	C755.275269,590.850586 755.280518,590.866028 755.277710,598.488342 
	C755.272217,613.481018 755.259155,628.473694 755.276978,643.466370 
	C755.284973,650.200317 756.133789,651.054932 762.601990,651.065491 
	C767.932739,651.074158 773.287842,651.359985 778.582092,650.920471 
	C780.687866,650.745667 782.658875,648.948303 785.385315,648.110229 
M923.382874,557.867065 
	C925.962158,549.138428 925.569397,540.521729 922.669128,531.914001 
	C916.997620,515.081970 900.767700,501.878448 883.729248,501.365021 
	C866.917969,500.858490 850.081665,501.205536 833.256653,501.116821 
	C829.411804,501.096558 827.852722,502.917847 827.953430,506.653870 
	C828.065552,510.815735 827.985168,514.982849 827.985046,519.147644 
	C827.983948,560.795898 827.980164,602.444092 827.982544,644.092346 
	C827.982910,650.842285 828.193115,651.044617 835.066101,651.063477 
	C839.897278,651.076782 844.728516,651.070984 849.559692,651.065613 
	C856.533752,651.057922 856.967896,650.639709 856.969849,643.748901 
	C856.974182,628.255737 856.855164,612.760986 857.087830,597.271423 
	C857.119202,595.183105 858.352661,592.074402 859.959839,591.248657 
	C864.283203,589.026917 868.968140,591.188538 871.113525,595.602966 
	C872.202087,597.842896 873.138306,600.158630 874.097290,602.459351 
	C880.159607,617.003174 886.252380,631.534546 892.231384,646.112549 
	C893.687744,649.663330 895.980530,651.232727 899.880188,651.114685 
	C906.537781,650.913025 913.207275,651.139832 919.869202,651.032043 
	C924.951538,650.949707 925.855896,649.112305 923.807495,644.400757 
	C916.399414,627.360535 909.034607,610.300659 901.796509,593.187744 
	C898.932861,586.417358 899.183472,586.199402 905.100281,581.775818 
	C913.210022,575.712708 920.276367,568.813660 923.382874,557.867065 
M1090.254150,513.568481 
	C1090.254150,549.884583 1090.254150,586.200623 1090.254150,622.516724 
	C1090.254150,630.346313 1090.285522,638.176147 1090.240234,646.005493 
	C1090.220703,649.380127 1091.270264,651.178772 1095.160400,651.128601 
	C1110.817017,650.926758 1126.481689,651.183472 1142.132324,650.808533 
	C1146.492432,650.704041 1151.102417,649.672363 1155.104614,647.932068 
	C1173.593140,639.892273 1183.341309,624.815125 1185.477173,605.478760 
	C1187.129883,590.517700 1186.986084,575.293884 1186.693848,560.205200 
	C1186.502075,550.307495 1185.478516,540.353333 1181.152710,531.010559 
	C1173.531250,514.550171 1161.662231,503.556427 1143.114136,502.154175 
	C1129.368164,501.115051 1115.512573,501.379333 1101.705200,501.348480 
	C1091.291626,501.325226 1089.973633,498.645844 1090.254150,513.568481 
M1258.991333,504.500000 
	C1258.993530,485.002686 1259.003174,465.505402 1258.993286,446.008087 
	C1258.990356,440.192383 1258.040405,439.205872 1252.443359,439.175476 
	C1247.110962,439.146515 1241.767578,439.375854 1236.449097,439.102814 
	C1232.250000,438.887268 1230.912964,440.563141 1230.928711,444.627533 
	C1231.061279,478.955383 1231.030273,513.283813 1231.104370,547.611938 
	C1231.134033,561.370361 1238.140503,571.561035 1248.339111,579.828979 
	C1258.409790,587.993164 1270.285278,590.102722 1282.984741,589.906006 
	C1309.495605,589.495239 1331.271240,568.877747 1330.766357,540.959473 
	C1330.528442,527.798889 1330.725952,514.630493 1330.726562,501.465637 
	C1330.727295,482.968170 1330.747314,464.470703 1330.718018,445.973297 
	C1330.709106,440.278137 1329.616577,439.205841 1324.087402,439.177673 
	C1319.254883,439.153046 1314.422119,439.169952 1309.589478,439.170807 
	C1302.546265,439.172058 1302.017334,439.707275 1302.016602,446.936401 
	C1302.013672,477.598846 1302.127563,508.262115 1301.893555,538.922791 
	C1301.859131,543.424500 1301.108398,548.397766 1299.067383,552.306030 
	C1295.057129,559.985168 1287.484009,561.435730 1279.380737,561.288635 
	C1265.994751,561.045410 1259.037598,554.267029 1258.999390,540.995117 
	C1258.965332,529.163452 1258.991699,517.331726 1258.991333,504.500000 
M987.500000,501.132202 
	C980.838257,501.132935 974.172058,501.280182 967.516357,501.079742 
	C963.489258,500.958405 961.818298,502.399445 961.825256,506.554779 
	C961.903259,553.020203 961.891968,599.485901 961.841492,645.951416 
	C961.837646,649.495605 963.120972,651.108521 966.810547,651.098328 
	C991.958374,651.028870 1017.106628,651.027527 1042.254395,651.096985 
	C1046.024658,651.107361 1047.213989,649.318665 1047.132446,645.855225 
	C1047.014893,640.861633 1047.098999,635.863281 1047.098511,630.867004 
	C1047.097900,622.653625 1046.748047,622.309814 1038.247803,622.307739 
	C1024.424683,622.304321 1010.601562,622.323242 996.778442,622.301636 
	C990.958557,622.292542 989.942444,621.318298 989.911011,615.774719 
	C989.876038,609.612793 990.082825,603.443420 989.840515,597.290833 
	C989.654053,592.556580 991.504700,590.685059 996.269897,590.778320 
	C1006.591675,590.980408 1016.920288,590.807251 1027.245605,590.866882 
	C1031.593994,590.891968 1033.699829,588.948486 1033.621216,584.527283 
	C1033.529419,579.366089 1033.625610,574.201782 1033.593872,569.039185 
	C1033.555298,562.800354 1032.135620,561.348145 1025.978638,561.330444 
	C1015.986084,561.301758 1005.990662,561.188354 996.002136,561.390503 
	C991.574524,561.480103 989.582642,560.088257 989.826050,555.372314 
	C990.134766,549.392639 989.900696,543.385010 989.905029,537.389465 
	C989.909912,530.625366 990.644836,529.859924 997.273865,529.855713 
	C1011.929688,529.846436 1026.585815,529.801941 1041.241089,529.889954 
	C1045.370605,529.914734 1047.376831,528.489441 1047.164795,524.028564 
	C1046.896362,518.378967 1046.903931,512.697510 1047.166382,507.047119 
	C1047.382568,502.394440 1045.436768,501.010437 1040.960449,501.057556 
	C1023.475281,501.241577 1005.987061,501.132538 987.500000,501.132202 
M1371.000000,488.500000 
	C1371.000000,516.327271 1371.000366,544.154480 1370.999634,571.981750 
	C1370.999512,575.980835 1370.973877,579.980103 1370.997559,583.979004 
	C1371.017822,587.400391 1372.471436,589.141663 1376.198242,588.987366 
	C1381.354980,588.773804 1386.527100,588.934998 1391.692627,588.932739 
	C1399.013794,588.929565 1399.692139,588.262268 1399.693848,580.945557 
	C1399.697632,565.282349 1399.768188,549.618408 1399.629395,533.956421 
	C1399.595093,530.085327 1400.943970,528.509888 1404.876099,528.692200 
	C1409.697998,528.915771 1414.540649,528.847046 1419.369873,528.726868 
	C1435.165894,528.333801 1448.367188,522.712158 1458.272949,509.901794 
	C1468.221680,497.035614 1469.568359,476.989838 1461.447510,462.872284 
	C1452.187012,446.773743 1438.230835,439.251953 1419.946533,439.188354 
	C1405.783081,439.139099 1391.617676,439.302826 1377.457031,439.098175 
	C1372.707031,439.029541 1370.876099,440.754272 1370.933594,445.510010 
	C1371.102905,459.504883 1370.997681,473.503082 1371.000000,488.500000 
M579.274536,580.500000 
	C579.274414,587.829773 579.274719,595.159607 579.274170,602.489380 
	C579.273071,616.315979 579.248657,630.142639 579.280884,643.969177 
	C579.294739,649.924927 580.416138,651.037415 586.178589,651.065674 
	C590.842896,651.088562 595.507385,651.073059 600.171753,651.070496 
	C608.157104,651.066101 608.686646,650.540039 608.686523,642.562561 
	C608.686035,607.246399 608.680176,571.930176 608.683350,536.614014 
	C608.683899,530.211060 609.042236,529.863281 615.486877,529.859192 
	C622.983215,529.854431 630.480896,529.781433 637.975464,529.899292 
	C642.218018,529.966003 643.997986,528.200256 643.833496,523.885986 
	C643.611389,518.064026 643.725708,512.226379 643.803528,506.396912 
	C643.850159,502.897034 642.369385,501.120178 638.769409,501.122528 
	C608.950562,501.142181 579.131775,501.146790 549.312927,501.117523 
	C545.739685,501.114014 544.150452,502.777405 544.184570,506.301666 
	C544.240906,512.131653 544.392700,517.970642 544.142822,523.790405 
	C543.942261,528.461426 546.055298,529.998718 550.423401,529.905518 
	C557.749878,529.749146 565.081970,529.855591 572.411743,529.856750 
	C578.963074,529.857849 579.277100,530.154846 579.279297,536.520935 
	C579.284241,550.847290 579.277161,565.173645 579.274536,580.500000 
z"/>
<path fill="#FAFEFD" opacity="1.000000" stroke="none" 
	d="
M923.239136,558.246704 
	C920.276367,568.813660 913.210022,575.712708 905.100281,581.775818 
	C899.183472,586.199402 898.932861,586.417358 901.796509,593.187744 
	C909.034607,610.300659 916.399414,627.360535 923.807495,644.400757 
	C925.855896,649.112305 924.951538,650.949707 919.869202,651.032043 
	C913.207275,651.139832 906.537781,650.913025 899.880188,651.114685 
	C895.980530,651.232727 893.687744,649.663330 892.231384,646.112549 
	C886.252380,631.534546 880.159607,617.003174 874.097290,602.459351 
	C873.138306,600.158630 872.202087,597.842896 871.113525,595.602966 
	C868.968140,591.188538 864.283203,589.026917 859.959839,591.248657 
	C858.352661,592.074402 857.119202,595.183105 857.087830,597.271423 
	C856.855164,612.760986 856.974182,628.255737 856.969849,643.748901 
	C856.967896,650.639709 856.533752,651.057922 849.559692,651.065613 
	C844.728516,651.070984 839.897278,651.076782 835.066101,651.063477 
	C828.193115,651.044617 827.982910,650.842285 827.982544,644.092346 
	C827.980164,602.444092 827.983948,560.795898 827.985046,519.147644 
	C827.985168,514.982849 828.065552,510.815735 827.953430,506.653870 
	C827.852722,502.917847 829.411804,501.096558 833.256653,501.116821 
	C850.081665,501.205536 866.917969,500.858490 883.729248,501.365021 
	C900.767700,501.878448 916.997620,515.081970 922.669128,531.914001 
	C925.569397,540.521729 925.962158,549.138428 923.239136,558.246704 
M876.165833,529.265503 
	C871.678467,529.266174 867.190735,529.231812 862.703857,529.278748 
	C859.265869,529.314758 856.923035,530.597717 856.939270,534.530029 
	C856.970154,542.008728 856.938293,549.487793 856.938232,556.966675 
	C856.938171,560.228638 858.567139,561.890747 861.841125,561.884644 
	C868.156311,561.872925 874.486633,562.116028 880.782776,561.760376 
	C888.308899,561.335266 894.023987,556.246338 895.625061,549.225647 
	C897.145691,542.557434 894.510193,536.088379 887.886475,532.456787 
	C884.667908,530.692078 880.702881,530.288696 876.165833,529.265503 
z"/>
<path fill="#FAFEFD" opacity="1.000000" stroke="none" 
	d="
M784.691162,647.889526 
	C782.658875,648.948303 780.687866,650.745667 778.582092,650.920471 
	C773.287842,651.359985 767.932739,651.074158 762.601990,651.065491 
	C756.133789,651.054932 755.284973,650.200317 755.276978,643.466370 
	C755.259155,628.473694 755.272217,613.481018 755.277710,598.488342 
	C755.280518,590.866028 755.275269,590.850586 747.890625,590.845886 
	C739.228210,590.840332 730.562988,590.973450 721.904541,590.787903 
	C717.805542,590.700134 716.007812,592.534363 716.029846,596.383667 
	C716.121155,612.364624 716.204651,628.346130 716.436340,644.325378 
	C716.500305,648.741272 714.881714,650.973267 710.586121,651.036255 
	C704.590332,651.124268 698.588623,650.932556 692.596619,651.106934 
	C688.721680,651.219666 687.123352,649.552856 687.181335,645.782776 
	C687.265869,640.286682 687.208130,634.788452 687.208069,629.291138 
	C687.207581,589.144104 687.206177,548.997070 687.205750,508.850006 
	C687.205688,501.580292 687.624207,501.148773 694.781128,501.133759 
	C700.111877,501.122589 705.448425,501.286011 710.771545,501.085052 
	C715.423950,500.909424 716.451782,503.696686 716.428223,507.404266 
	C716.326599,523.383484 716.163147,539.362244 716.006531,555.341064 
	C715.963440,559.732178 717.944214,561.525146 722.463623,561.396667 
	C731.285522,561.145691 740.125732,561.126160 748.946106,561.401672 
	C753.676697,561.549500 755.442566,560.003052 755.366394,555.119629 
	C755.124756,539.630920 755.259827,524.136169 755.273743,508.643768 
	C755.279724,501.960907 756.111145,501.140228 762.676270,501.132233 
	C768.173584,501.125580 773.681274,500.944000 779.162048,501.245422 
	C780.860840,501.338867 782.486572,502.760559 784.385742,504.291016 
	C784.647522,552.635071 784.669312,600.262329 784.691162,647.889526 
z"/>
<path fill="#FBFEFE" opacity="1.000000" stroke="none" 
	d="
M1090.254395,513.082703 
	C1089.973633,498.645844 1091.291626,501.325226 1101.705200,501.348480 
	C1115.512573,501.379333 1129.368164,501.115051 1143.114136,502.154175 
	C1161.662231,503.556427 1173.531250,514.550171 1181.152710,531.010559 
	C1185.478516,540.353333 1186.502075,550.307495 1186.693848,560.205200 
	C1186.986084,575.293884 1187.129883,590.517700 1185.477173,605.478760 
	C1183.341309,624.815125 1173.593140,639.892273 1155.104614,647.932068 
	C1151.102417,649.672363 1146.492432,650.704041 1142.132324,650.808533 
	C1126.481689,651.183472 1110.817017,650.926758 1095.160400,651.128601 
	C1091.270264,651.178772 1090.220703,649.380127 1090.240234,646.005493 
	C1090.285522,638.176147 1090.254150,630.346313 1090.254150,622.516724 
	C1090.254150,586.200623 1090.254150,549.884583 1090.254395,513.082703 
M1158.839233,570.592102 
	C1158.481567,563.780396 1158.496704,556.923706 1157.682983,550.166931 
	C1156.298584,538.672668 1149.311768,528.938721 1135.786377,529.914429 
	C1131.808350,530.201416 1127.790527,530.015259 1123.793335,529.929016 
	C1119.835449,529.843689 1118.080078,531.546631 1118.092163,535.628174 
	C1118.172485,562.786743 1118.181763,589.945923 1118.085571,617.104370 
	C1118.070923,621.238220 1119.998657,622.872253 1123.788330,622.915771 
	C1127.786621,622.961731 1131.791626,622.788147 1135.783569,622.953369 
	C1149.888062,623.537109 1156.540527,613.482605 1157.632935,602.487305 
	C1158.650757,592.241760 1158.494751,581.879639 1158.839233,570.592102 
z"/>
<path fill="#FAFEFD" opacity="1.000000" stroke="none" 
	d="
M1258.991333,505.000000 
	C1258.991699,517.331726 1258.965332,529.163452 1258.999390,540.995117 
	C1259.037598,554.267029 1265.994751,561.045410 1279.380737,561.288635 
	C1287.484009,561.435730 1295.057129,559.985168 1299.067383,552.306030 
	C1301.108398,548.397766 1301.859131,543.424500 1301.893555,538.922791 
	C1302.127563,508.262115 1302.013672,477.598846 1302.016602,446.936401 
	C1302.017334,439.707275 1302.546265,439.172058 1309.589478,439.170807 
	C1314.422119,439.169952 1319.254883,439.153046 1324.087402,439.177673 
	C1329.616577,439.205841 1330.709106,440.278137 1330.718018,445.973297 
	C1330.747314,464.470703 1330.727295,482.968170 1330.726562,501.465637 
	C1330.725952,514.630493 1330.528442,527.798889 1330.766357,540.959473 
	C1331.271240,568.877747 1309.495605,589.495239 1282.984741,589.906006 
	C1270.285278,590.102722 1258.409790,587.993164 1248.339111,579.828979 
	C1238.140503,571.561035 1231.134033,561.370361 1231.104370,547.611938 
	C1231.030273,513.283813 1231.061279,478.955383 1230.928711,444.627533 
	C1230.912964,440.563141 1232.250000,438.887268 1236.449097,439.102814 
	C1241.767578,439.375854 1247.110962,439.146515 1252.443359,439.175476 
	C1258.040405,439.205872 1258.990356,440.192383 1258.993286,446.008087 
	C1259.003174,465.505402 1258.993530,485.002686 1258.991333,505.000000 
z"/>
<path fill="#FAFEFD" opacity="1.000000" stroke="none" 
	d="
M988.000000,501.132324 
	C1005.987061,501.132538 1023.475281,501.241577 1040.960449,501.057556 
	C1045.436768,501.010437 1047.382568,502.394440 1047.166382,507.047119 
	C1046.903931,512.697510 1046.896362,518.378967 1047.164795,524.028564 
	C1047.376831,528.489441 1045.370605,529.914734 1041.241089,529.889954 
	C1026.585815,529.801941 1011.929688,529.846436 997.273865,529.855713 
	C990.644836,529.859924 989.909912,530.625366 989.905029,537.389465 
	C989.900696,543.385010 990.134766,549.392639 989.826050,555.372314 
	C989.582642,560.088257 991.574524,561.480103 996.002136,561.390503 
	C1005.990662,561.188354 1015.986084,561.301758 1025.978638,561.330444 
	C1032.135620,561.348145 1033.555298,562.800354 1033.593872,569.039185 
	C1033.625610,574.201782 1033.529419,579.366089 1033.621216,584.527283 
	C1033.699829,588.948486 1031.593994,590.891968 1027.245605,590.866882 
	C1016.920288,590.807251 1006.591675,590.980408 996.269897,590.778320 
	C991.504700,590.685059 989.654053,592.556580 989.840515,597.290833 
	C990.082825,603.443420 989.876038,609.612793 989.911011,615.774719 
	C989.942444,621.318298 990.958557,622.292542 996.778442,622.301636 
	C1010.601562,622.323242 1024.424683,622.304321 1038.247803,622.307739 
	C1046.748047,622.309814 1047.097900,622.653625 1047.098511,630.867004 
	C1047.098999,635.863281 1047.014893,640.861633 1047.132446,645.855225 
	C1047.213989,649.318665 1046.024658,651.107361 1042.254395,651.096985 
	C1017.106628,651.027527 991.958374,651.028870 966.810547,651.098328 
	C963.120972,651.108521 961.837646,649.495605 961.841492,645.951416 
	C961.891968,599.485901 961.903259,553.020203 961.825256,506.554779 
	C961.818298,502.399445 963.489258,500.958405 967.516357,501.079742 
	C974.172058,501.280182 980.838257,501.132935 988.000000,501.132324 
z"/>
<path fill="#FAFEFD" opacity="1.000000" stroke="none" 
	d="
M1371.000000,488.000000 
	C1370.997681,473.503082 1371.102905,459.504883 1370.933594,445.510010 
	C1370.876099,440.754272 1372.707031,439.029541 1377.457031,439.098175 
	C1391.617676,439.302826 1405.783081,439.139099 1419.946533,439.188354 
	C1438.230835,439.251953 1452.187012,446.773743 1461.447510,462.872284 
	C1469.568359,476.989838 1468.221680,497.035614 1458.272949,509.901794 
	C1448.367188,522.712158 1435.165894,528.333801 1419.369873,528.726868 
	C1414.540649,528.847046 1409.697998,528.915771 1404.876099,528.692200 
	C1400.943970,528.509888 1399.595093,530.085327 1399.629395,533.956421 
	C1399.768188,549.618408 1399.697632,565.282349 1399.693848,580.945557 
	C1399.692139,588.262268 1399.013794,588.929565 1391.692627,588.932739 
	C1386.527100,588.934998 1381.354980,588.773804 1376.198242,588.987366 
	C1372.471436,589.141663 1371.017822,587.400391 1370.997559,583.979004 
	C1370.973877,579.980103 1370.999512,575.980835 1370.999634,571.981750 
	C1371.000366,544.154480 1371.000000,516.327271 1371.000000,488.000000 
M1432.351685,495.932617 
	C1437.914917,490.724426 1439.833252,484.342346 1436.700928,477.421173 
	C1433.830200,471.077667 1428.053467,467.851929 1421.185791,467.344208 
	C1415.732788,466.941071 1410.224609,467.164520 1404.744751,467.284576 
	C1400.994995,467.366699 1399.022095,469.239807 1399.099243,473.257294 
	C1399.233154,480.233154 1399.246582,487.216125 1399.089111,494.191101 
	C1398.990356,498.570343 1401.033447,500.104462 1405.176636,499.966705 
	C1410.155884,499.801147 1415.198730,500.368195 1420.112183,499.774933 
	C1424.074951,499.296448 1427.886475,497.565796 1432.351685,495.932617 
z"/>
<path fill="#F9FEFD" opacity="1.000000" stroke="none" 
	d="
M579.274780,580.000000 
	C579.277161,565.173645 579.284241,550.847290 579.279297,536.520935 
	C579.277100,530.154846 578.963074,529.857849 572.411743,529.856750 
	C565.081970,529.855591 557.749878,529.749146 550.423401,529.905518 
	C546.055298,529.998718 543.942261,528.461426 544.142822,523.790405 
	C544.392700,517.970642 544.240906,512.131653 544.184570,506.301666 
	C544.150452,502.777405 545.739685,501.114014 549.312927,501.117523 
	C579.131775,501.146790 608.950562,501.142181 638.769409,501.122528 
	C642.369385,501.120178 643.850159,502.897034 643.803528,506.396912 
	C643.725708,512.226379 643.611389,518.064026 643.833496,523.885986 
	C643.997986,528.200256 642.218018,529.966003 637.975464,529.899292 
	C630.480896,529.781433 622.983215,529.854431 615.486877,529.859192 
	C609.042236,529.863281 608.683899,530.211060 608.683350,536.614014 
	C608.680176,571.930176 608.686035,607.246399 608.686523,642.562561 
	C608.686646,650.540039 608.157104,651.066101 600.171753,651.070496 
	C595.507385,651.073059 590.842896,651.088562 586.178589,651.065674 
	C580.416138,651.037415 579.294739,649.924927 579.280884,643.969177 
	C579.248657,630.142639 579.273071,616.315979 579.274170,602.489380 
	C579.274719,595.159607 579.274414,587.829773 579.274780,580.000000 
z"/>
<path fill="#35DDB2" opacity="1.000000" stroke="none" 
	d="
M785.038208,647.999878 
	C784.669312,600.262329 784.647522,552.635071 784.637329,504.545471 
	C785.432617,505.749084 786.890137,507.411407 786.899231,509.081635 
	C787.042725,535.403809 787.000000,561.727051 787.000000,588.050049 
	C787.000000,606.709412 787.033691,625.368896 786.930420,644.027710 
	C786.922791,645.391357 785.923523,646.749512 785.038208,647.999878 
z"/>
<path fill="#50E2BD" opacity="1.000000" stroke="none" 
	d="
M876.620850,529.267334 
	C880.702881,530.288696 884.667908,530.692078 887.886475,532.456787 
	C894.510193,536.088379 897.145691,542.557434 895.625061,549.225647 
	C894.023987,556.246338 888.308899,561.335266 880.782776,561.760376 
	C874.486633,562.116028 868.156311,561.872925 861.841125,561.884644 
	C858.567139,561.890747 856.938171,560.228638 856.938232,556.966675 
	C856.938293,549.487793 856.970154,542.008728 856.939270,534.530029 
	C856.923035,530.597717 859.265869,529.314758 862.703857,529.278748 
	C867.190735,529.231812 871.678467,529.266174 876.620850,529.267334 
z"/>
<path fill="#4EE2BD" opacity="1.000000" stroke="none" 
	d="
M1158.847412,571.080444 
	C1158.494751,581.879639 1158.650757,592.241760 1157.632935,602.487305 
	C1156.540527,613.482605 1149.888062,623.537109 1135.783569,622.953369 
	C1131.791626,622.788147 1127.786621,622.961731 1123.788330,622.915771 
	C1119.998657,622.872253 1118.070923,621.238220 1118.085571,617.104370 
	C1118.181763,589.945923 1118.172485,562.786743 1118.092163,535.628174 
	C1118.080078,531.546631 1119.835449,529.843689 1123.793335,529.929016 
	C1127.790527,530.015259 1131.808350,530.201416 1135.786377,529.914429 
	C1149.311768,528.938721 1156.298584,538.672668 1157.682983,550.166931 
	C1158.496704,556.923706 1158.481567,563.780396 1158.847412,571.080444 
z"/>
<path fill="#50E2BD" opacity="1.000000" stroke="none" 
	d="
M1432.058350,496.161682 
	C1427.886475,497.565796 1424.074951,499.296448 1420.112183,499.774933 
	C1415.198730,500.368195 1410.155884,499.801147 1405.176636,499.966705 
	C1401.033447,500.104462 1398.990356,498.570343 1399.089111,494.191101 
	C1399.246582,487.216125 1399.233154,480.233154 1399.099243,473.257294 
	C1399.022095,469.239807 1400.994995,467.366699 1404.744751,467.284576 
	C1410.224609,467.164520 1415.732788,466.941071 1421.185791,467.344208 
	C1428.053467,467.851929 1433.830200,471.077667 1436.700928,477.421173 
	C1439.833252,484.342346 1437.914917,490.724426 1432.058350,496.161682 
z"/>
</svg>